# xmcd
#
# Track frame offsets: 
#        150
#        19050
#        35577
#        54580
#        73685
#        89982
#        108332
#        127347
#        149412
#        169500
#        193872
#        213667
#        234235
#        255375
#        276905
#        296170
#
# Disc length: 4170 seconds
#
# Revision: 5
# Processed by: cddbd v1.5.2PL0 Copyright (c) Steve Scherf et al.
# Submitted via: ExactAudioCopy v0.99pb5
#
DISCID=01104810
DTITLE=YangPa - A Letter from Berkeley
DYEAR=1999
DGENRE=Blues
TTITLE0=다 알아요
TTITLE1=애송이의 사랑
TTITLE2=Forever with you(천사의 시)
TTITLE3=알고싶어요
TTITLE4=소유
TTITLE5=Addio
TTITLE6=그녀안의 나
TTITLE7=괜찮아
TTITLE8=Stay with me
TTITLE9=소녀가 소년에게
TTITLE10=애이불비
TTITLE11=그대 아니었다면 (Duet with 이승환)
TTITLE12=너를 지켜줄께 (Duet with 이지훈)
TTITLE13=迷 盧 (미로)
TTITLE14=Missing you
TTITLE15=Heart beat away
EXTD=Jim Hall\nYEAR: 1999  ID3G:   0
EXTT0=dotti\n\nFilm: Menage All'Italiana (Marriage Italian Style)
EXTT1=a (Marriage Italian Style)
EXTT2=yle)
EXTT3=dotti\n\nFilm: Menage All'Italiana (Marriage Italian Style)
EXTT4=lian Style)
EXTT5=a (Marriage Italian Style)
EXTT6=a (Marriage Italian Style)
EXTT7=a (Marriage Italian Style)
EXTT8=a (Marriage Italian Style)
EXTT9=a (Marriage Italian Style)
EXTT10=na (Marriage Italian Style)
EXTT11=na (Marriage Italian Style)
EXTT12=Ad Ogni Costo (Grand Slam)
EXTT13=am)
EXTT14=d by Bruno Nicolai\n\nFilm: Ad Ogni Costo (Grand Slam)
EXTT15=Ad Ogni Costo (Grand Slam)
PLAYORDER=
